<svg width="200" height="200" viewBox="0 0 200 200" fill="none" xmlns="http://www.w3.org/2000/svg">
<rect width="200" height="200" rx="24" fill="white"/>
<path d="M77.4257 161.876C19.2715 153.312 20.25 94.9153 20.25 77.25H181.75C181.75 86.3415 182.163 152.157 119.406 162.36C109.707 163.937 88.7307 163.543 77.4257 161.876Z" fill="#574747"/>
<path d="M174.093 59.4233C185.811 32.9468 134.521 34.4668 121.677 38.6088C115.065 37.8393 108.158 37.4023 101 37.4023C56.4022 37.4023 20.25 52.7353 20.25 77.5112C20.25 82.304 21.6322 86.9115 24.1355 91.2435C3.58224 118.375 44.304 123.477 67.7595 118.366C77.9055 120.917 89.1345 122.375 101 122.375C145.598 122.375 181.75 102.287 181.75 77.516C181.75 70.7235 178.952 64.672 174.093 59.4233Z" fill="#786E6E"/>
<path d="M101 115.25C140.35 115.25 172.25 100.363 172.25 82C172.25 63.6365 140.35 48.75 101 48.75C61.6497 48.75 29.75 63.6365 29.75 82C29.75 100.363 61.6497 115.25 101 115.25Z" fill="#FFCC4D"/>
<path d="M34.5 72.5C31.9255 62.1973 44 44 67.75 48.75C72.5 44 81.2305 39.25 96.25 39.25C105.75 39.25 122.907 47.6813 115.25 63C110.5 72.5 91.5 86.75 67.75 77.25C63 82 39.25 91.5 34.5 72.5Z" fill="#77B255"/>
<path d="M72.5 77.25C71.3172 77.421 70.2627 77.5968 69.2795 77.7773C92.3075 86.0708 110.604 72.291 115.25 63C120.37 52.759 114.39 45.615 107.028 41.9907C108.899 50.6452 101.67 73.0843 72.5 77.25Z" fill="#5C913B"/>
<path d="M39.25 72.5C41.7437 66.2633 63 58.25 86.75 86.75C91.5 91.5 108.533 94.2835 115.25 101C120 105.75 115.25 110.5 96.25 110.5C77.25 110.5 29.75 96.25 39.25 72.5Z" fill="#D99E82"/>
<path d="M44.1948 91.5855C56.2978 103.665 83.0972 110.5 96.25 110.5C115.25 110.5 120 105.75 115.25 101C113.701 99.4515 111.592 98.1168 109.227 96.915C94.008 105.147 53.747 96.231 44.1948 91.5855Z" fill="#B27962"/>
<path d="M143.75 86.7547C142.757 86.7547 141.741 86.5932 140.743 86.2607L126.493 81.5107C121.515 79.8482 118.827 74.4712 120.484 69.4932C122.142 64.52 127.51 61.8267 132.502 63.4845L146.752 68.2345C151.73 69.897 154.418 75.274 152.761 80.252C151.435 84.2372 147.73 86.7547 143.75 86.7547ZM139 101H129.5C126.873 101 124.75 98.8768 124.75 96.25C124.75 93.6233 126.873 91.5 129.5 91.5H139C141.627 91.5 143.75 93.6233 143.75 96.25C143.75 98.8768 141.627 101 139 101Z" fill="#FFE8B6"/>
</svg>
